<svg id="visual" viewBox="0 0 900 900" width="900" height="900" xmlns="http://www.w3.org/2000/svg" xmlns:xlink="http://www.w3.org/1999/xlink" version="1.1"><rect width="900" height="900" fill="#001829"></rect><g><g transform="translate(856 128)"><path d="M0 -144.3L102.1 -102.1L144.3 0L102.1 102.1L0 144.3L-102.1 102.1L-144.3 0L-102.1 -102.1Z" fill="#297EA6"></path></g><g transform="translate(209 589)"><path d="M0 -117L82.7 -82.7L117 0L82.7 82.7L0 117L-82.7 82.7L-117 0L-82.7 -82.7Z" fill="#297EA6"></path></g><g transform="translate(450 802)"><path d="M0 -81L57.3 -57.3L81 0L57.3 57.3L0 81L-57.3 57.3L-81 0L-57.3 -57.3Z" fill="#297EA6"></path></g><g transform="translate(43 828)"><path d="M0 -80L56.6 -56.6L80 0L56.6 56.6L0 80L-56.6 56.6L-80 0L-56.6 -56.6Z" fill="#297EA6"></path></g><g transform="translate(24 270)"><path d="M0 -73L51.6 -51.6L73 0L51.6 51.6L0 73L-51.6 51.6L-73 0L-51.6 -51.6Z" fill="#297EA6"></path></g><g transform="translate(739 671)"><path d="M0 -66L46.7 -46.7L66 0L46.7 46.7L0 66L-46.7 46.7L-66 0L-46.7 -46.7Z" fill="#297EA6"></path></g><g transform="translate(541 268)"><path d="M0 -100L70.7 -70.7L100 0L70.7 70.7L0 100L-70.7 70.7L-100 0L-70.7 -70.7Z" fill="#297EA6"></path></g><g transform="translate(301 54)"><path d="M0 -101L71.4 -71.4L101 0L71.4 71.4L0 101L-71.4 71.4L-101 0L-71.4 -71.4Z" fill="#297EA6"></path></g></g></svg>